<?xml version="1.0" encoding="utf-8" standalone="no"?>
<!DOCTYPE svg PUBLIC "-//W3C//DTD SVG 1.1//EN"
  "http://www.w3.org/Graphics/SVG/1.1/DTD/svg11.dtd">
<!-- Created with matplotlib (http://matplotlib.org/) -->
<svg height="345pt" version="1.1" viewBox="0 0 460 345" width="460pt" xmlns="http://www.w3.org/2000/svg" xmlns:xlink="http://www.w3.org/1999/xlink">
 <defs>
  <style type="text/css">
*{stroke-linecap:butt;stroke-linejoin:round;}
  </style>
 </defs>
 <g id="figure_1">
  <g id="patch_1">
   <path d="M 0 345.6 
L 460.8 345.6 
L 460.8 0 
L 0 0 
z
" style="fill:#ffffff;"/>
  </g>
  <g id="axes_1">
   <g id="patch_2">
    <path d="M 57.6 307.584 
L 414.72 307.584 
L 414.72 41.472 
L 57.6 41.472 
z
" style="fill:#ffffff;"/>
   </g>
   <g id="patch_3">
    <path clip-path="url(#pfd8e831c8e)" d="M 57.6 20472.971125 
L 61.1712 20472.971125 
L 61.1712 110.124084 
L 57.6 110.124084 
z
" style="fill:#1f77b4;opacity:0.5;"/>
   </g>
   <g id="patch_4">
    <path clip-path="url(#pfd8e831c8e)" d="M 61.1712 20472.971125 
L 64.7424 20472.971125 
L 64.7424 20472.971125 
L 61.1712 20472.971125 
z
" style="fill:#1f77b4;opacity:0.5;"/>
   </g>
   <g id="patch_5">
    <path clip-path="url(#pfd8e831c8e)" d="M 64.7424 20472.971125 
L 68.3136 20472.971125 
L 68.3136 20472.971125 
L 64.7424 20472.971125 
z
" style="fill:#1f77b4;opacity:0.5;"/>
   </g>
   <g id="patch_6">
    <path clip-path="url(#pfd8e831c8e)" d="M 68.3136 20472.971125 
L 71.8848 20472.971125 
L 71.8848 20472.971125 
L 68.3136 20472.971125 
z
" style="fill:#1f77b4;opacity:0.5;"/>
   </g>
   <g id="patch_7">
    <path clip-path="url(#pfd8e831c8e)" d="M 71.8848 20472.971125 
L 75.456 20472.971125 
L 75.456 20472.971125 
L 71.8848 20472.971125 
z
" style="fill:#1f77b4;opacity:0.5;"/>
   </g>
   <g id="patch_8">
    <path clip-path="url(#pfd8e831c8e)" d="M 75.456 20472.971125 
L 79.0272 20472.971125 
L 79.0272 20472.971125 
L 75.456 20472.971125 
z
" style="fill:#1f77b4;opacity:0.5;"/>
   </g>
   <g id="patch_9">
    <path clip-path="url(#pfd8e831c8e)" d="M 79.0272 20472.971125 
L 82.5984 20472.971125 
L 82.5984 20472.971125 
L 79.0272 20472.971125 
z
" style="fill:#1f77b4;opacity:0.5;"/>
   </g>
   <g id="patch_10">
    <path clip-path="url(#pfd8e831c8e)" d="M 82.5984 20472.971125 
L 86.1696 20472.971125 
L 86.1696 20472.971125 
L 82.5984 20472.971125 
z
" style="fill:#1f77b4;opacity:0.5;"/>
   </g>
   <g id="patch_11">
    <path clip-path="url(#pfd8e831c8e)" d="M 86.1696 20472.971125 
L 89.7408 20472.971125 
L 89.7408 20472.971125 
L 86.1696 20472.971125 
z
" style="fill:#1f77b4;opacity:0.5;"/>
   </g>
   <g id="patch_12">
    <path clip-path="url(#pfd8e831c8e)" d="M 89.7408 20472.971125 
L 93.312 20472.971125 
L 93.312 20472.971125 
L 89.7408 20472.971125 
z
" style="fill:#1f77b4;opacity:0.5;"/>
   </g>
   <g id="patch_13">
    <path clip-path="url(#pfd8e831c8e)" d="M 93.312 20472.971125 
L 96.8832 20472.971125 
L 96.8832 20472.971125 
L 93.312 20472.971125 
z
" style="fill:#1f77b4;opacity:0.5;"/>
   </g>
   <g id="patch_14">
    <path clip-path="url(#pfd8e831c8e)" d="M 96.8832 20472.971125 
L 100.4544 20472.971125 
L 100.4544 20472.971125 
L 96.8832 20472.971125 
z
" style="fill:#1f77b4;opacity:0.5;"/>
   </g>
   <g id="patch_15">
    <path clip-path="url(#pfd8e831c8e)" d="M 100.4544 20472.971125 
L 104.0256 20472.971125 
L 104.0256 20472.971125 
L 100.4544 20472.971125 
z
" style="fill:#1f77b4;opacity:0.5;"/>
   </g>
   <g id="patch_16">
    <path clip-path="url(#pfd8e831c8e)" d="M 104.0256 20472.971125 
L 107.5968 20472.971125 
L 107.5968 20472.971125 
L 104.0256 20472.971125 
z
" style="fill:#1f77b4;opacity:0.5;"/>
   </g>
   <g id="patch_17">
    <path clip-path="url(#pfd8e831c8e)" d="M 107.5968 20472.971125 
L 111.168 20472.971125 
L 111.168 20472.971125 
L 107.5968 20472.971125 
z
" style="fill:#1f77b4;opacity:0.5;"/>
   </g>
   <g id="patch_18">
    <path clip-path="url(#pfd8e831c8e)" d="M 111.168 20472.971125 
L 114.7392 20472.971125 
L 114.7392 20472.971125 
L 111.168 20472.971125 
z
" style="fill:#1f77b4;opacity:0.5;"/>
   </g>
   <g id="patch_19">
    <path clip-path="url(#pfd8e831c8e)" d="M 114.7392 20472.971125 
L 118.3104 20472.971125 
L 118.3104 20472.971125 
L 114.7392 20472.971125 
z
" style="fill:#1f77b4;opacity:0.5;"/>
   </g>
   <g id="patch_20">
    <path clip-path="url(#pfd8e831c8e)" d="M 118.3104 20472.971125 
L 121.8816 20472.971125 
L 121.8816 20472.971125 
L 118.3104 20472.971125 
z
" style="fill:#1f77b4;opacity:0.5;"/>
   </g>
   <g id="patch_21">
    <path clip-path="url(#pfd8e831c8e)" d="M 121.8816 20472.971125 
L 125.4528 20472.971125 
L 125.4528 20472.971125 
L 121.8816 20472.971125 
z
" style="fill:#1f77b4;opacity:0.5;"/>
   </g>
   <g id="patch_22">
    <path clip-path="url(#pfd8e831c8e)" d="M 125.4528 20472.971125 
L 129.024 20472.971125 
L 129.024 20472.971125 
L 125.4528 20472.971125 
z
" style="fill:#1f77b4;opacity:0.5;"/>
   </g>
   <g id="patch_23">
    <path clip-path="url(#pfd8e831c8e)" d="M 129.024 20472.971125 
L 132.5952 20472.971125 
L 132.5952 20472.971125 
L 129.024 20472.971125 
z
" style="fill:#1f77b4;opacity:0.5;"/>
   </g>
   <g id="patch_24">
    <path clip-path="url(#pfd8e831c8e)" d="M 132.5952 20472.971125 
L 136.1664 20472.971125 
L 136.1664 20472.971125 
L 132.5952 20472.971125 
z
" style="fill:#1f77b4;opacity:0.5;"/>
   </g>
   <g id="patch_25">
    <path clip-path="url(#pfd8e831c8e)" d="M 136.1664 20472.971125 
L 139.7376 20472.971125 
L 139.7376 20472.971125 
L 136.1664 20472.971125 
z
" style="fill:#1f77b4;opacity:0.5;"/>
   </g>
   <g id="patch_26">
    <path clip-path="url(#pfd8e831c8e)" d="M 139.7376 20472.971125 
L 143.3088 20472.971125 
L 143.3088 20472.971125 
L 139.7376 20472.971125 
z
" style="fill:#1f77b4;opacity:0.5;"/>
   </g>
   <g id="patch_27">
    <path clip-path="url(#pfd8e831c8e)" d="M 143.3088 20472.971125 
L 146.88 20472.971125 
L 146.88 20472.971125 
L 143.3088 20472.971125 
z
" style="fill:#1f77b4;opacity:0.5;"/>
   </g>
   <g id="patch_28">
    <path clip-path="url(#pfd8e831c8e)" d="M 146.88 20472.971125 
L 150.4512 20472.971125 
L 150.4512 20472.971125 
L 146.88 20472.971125 
z
" style="fill:#1f77b4;opacity:0.5;"/>
   </g>
   <g id="patch_29">
    <path clip-path="url(#pfd8e831c8e)" d="M 150.4512 20472.971125 
L 154.0224 20472.971125 
L 154.0224 20472.971125 
L 150.4512 20472.971125 
z
" style="fill:#1f77b4;opacity:0.5;"/>
   </g>
   <g id="patch_30">
    <path clip-path="url(#pfd8e831c8e)" d="M 154.0224 20472.971125 
L 157.5936 20472.971125 
L 157.5936 20472.971125 
L 154.0224 20472.971125 
z
" style="fill:#1f77b4;opacity:0.5;"/>
   </g>
   <g id="patch_31">
    <path clip-path="url(#pfd8e831c8e)" d="M 157.5936 20472.971125 
L 161.1648 20472.971125 
L 161.1648 20472.971125 
L 157.5936 20472.971125 
z
" style="fill:#1f77b4;opacity:0.5;"/>
   </g>
   <g id="patch_32">
    <path clip-path="url(#pfd8e831c8e)" d="M 161.1648 20472.971125 
L 164.736 20472.971125 
L 164.736 20472.971125 
L 161.1648 20472.971125 
z
" style="fill:#1f77b4;opacity:0.5;"/>
   </g>
   <g id="patch_33">
    <path clip-path="url(#pfd8e831c8e)" d="M 164.736 20472.971125 
L 168.3072 20472.971125 
L 168.3072 20472.971125 
L 164.736 20472.971125 
z
" style="fill:#1f77b4;opacity:0.5;"/>
   </g>
   <g id="patch_34">
    <path clip-path="url(#pfd8e831c8e)" d="M 168.3072 20472.971125 
L 171.8784 20472.971125 
L 171.8784 20472.971125 
L 168.3072 20472.971125 
z
" style="fill:#1f77b4;opacity:0.5;"/>
   </g>
   <g id="patch_35">
    <path clip-path="url(#pfd8e831c8e)" d="M 171.8784 20472.971125 
L 175.4496 20472.971125 
L 175.4496 20472.971125 
L 171.8784 20472.971125 
z
" style="fill:#1f77b4;opacity:0.5;"/>
   </g>
   <g id="patch_36">
    <path clip-path="url(#pfd8e831c8e)" d="M 175.4496 20472.971125 
L 179.0208 20472.971125 
L 179.0208 20472.971125 
L 175.4496 20472.971125 
z
" style="fill:#1f77b4;opacity:0.5;"/>
   </g>
   <g id="patch_37">
    <path clip-path="url(#pfd8e831c8e)" d="M 179.0208 20472.971125 
L 182.592 20472.971125 
L 182.592 20472.971125 
L 179.0208 20472.971125 
z
" style="fill:#1f77b4;opacity:0.5;"/>
   </g>
   <g id="patch_38">
    <path clip-path="url(#pfd8e831c8e)" d="M 182.592 20472.971125 
L 186.1632 20472.971125 
L 186.1632 20472.971125 
L 182.592 20472.971125 
z
" style="fill:#1f77b4;opacity:0.5;"/>
   </g>
   <g id="patch_39">
    <path clip-path="url(#pfd8e831c8e)" d="M 186.1632 20472.971125 
L 189.7344 20472.971125 
L 189.7344 20472.971125 
L 186.1632 20472.971125 
z
" style="fill:#1f77b4;opacity:0.5;"/>
   </g>
   <g id="patch_40">
    <path clip-path="url(#pfd8e831c8e)" d="M 189.7344 20472.971125 
L 193.3056 20472.971125 
L 193.3056 20472.971125 
L 189.7344 20472.971125 
z
" style="fill:#1f77b4;opacity:0.5;"/>
   </g>
   <g id="patch_41">
    <path clip-path="url(#pfd8e831c8e)" d="M 193.3056 20472.971125 
L 196.8768 20472.971125 
L 196.8768 20472.971125 
L 193.3056 20472.971125 
z
" style="fill:#1f77b4;opacity:0.5;"/>
   </g>
   <g id="patch_42">
    <path clip-path="url(#pfd8e831c8e)" d="M 196.8768 20472.971125 
L 200.448 20472.971125 
L 200.448 20472.971125 
L 196.8768 20472.971125 
z
" style="fill:#1f77b4;opacity:0.5;"/>
   </g>
   <g id="patch_43">
    <path clip-path="url(#pfd8e831c8e)" d="M 200.448 20472.971125 
L 204.0192 20472.971125 
L 204.0192 20472.971125 
L 200.448 20472.971125 
z
" style="fill:#1f77b4;opacity:0.5;"/>
   </g>
   <g id="patch_44">
    <path clip-path="url(#pfd8e831c8e)" d="M 204.0192 20472.971125 
L 207.5904 20472.971125 
L 207.5904 20472.971125 
L 204.0192 20472.971125 
z
" style="fill:#1f77b4;opacity:0.5;"/>
   </g>
   <g id="patch_45">
    <path clip-path="url(#pfd8e831c8e)" d="M 207.5904 20472.971125 
L 211.1616 20472.971125 
L 211.1616 20472.971125 
L 207.5904 20472.971125 
z
" style="fill:#1f77b4;opacity:0.5;"/>
   </g>
   <g id="patch_46">
    <path clip-path="url(#pfd8e831c8e)" d="M 211.1616 20472.971125 
L 214.7328 20472.971125 
L 214.7328 20472.971125 
L 211.1616 20472.971125 
z
" style="fill:#1f77b4;opacity:0.5;"/>
   </g>
   <g id="patch_47">
    <path clip-path="url(#pfd8e831c8e)" d="M 214.7328 20472.971125 
L 218.304 20472.971125 
L 218.304 20472.971125 
L 214.7328 20472.971125 
z
" style="fill:#1f77b4;opacity:0.5;"/>
   </g>
   <g id="patch_48">
    <path clip-path="url(#pfd8e831c8e)" d="M 218.304 20472.971125 
L 221.8752 20472.971125 
L 221.8752 20472.971125 
L 218.304 20472.971125 
z
" style="fill:#1f77b4;opacity:0.5;"/>
   </g>
   <g id="patch_49">
    <path clip-path="url(#pfd8e831c8e)" d="M 221.8752 20472.971125 
L 225.4464 20472.971125 
L 225.4464 20472.971125 
L 221.8752 20472.971125 
z
" style="fill:#1f77b4;opacity:0.5;"/>
   </g>
   <g id="patch_50">
    <path clip-path="url(#pfd8e831c8e)" d="M 225.4464 20472.971125 
L 229.0176 20472.971125 
L 229.0176 20472.971125 
L 225.4464 20472.971125 
z
" style="fill:#1f77b4;opacity:0.5;"/>
   </g>
   <g id="patch_51">
    <path clip-path="url(#pfd8e831c8e)" d="M 229.0176 20472.971125 
L 232.5888 20472.971125 
L 232.5888 20472.971125 
L 229.0176 20472.971125 
z
" style="fill:#1f77b4;opacity:0.5;"/>
   </g>
   <g id="patch_52">
    <path clip-path="url(#pfd8e831c8e)" d="M 232.5888 20472.971125 
L 236.16 20472.971125 
L 236.16 20472.971125 
L 232.5888 20472.971125 
z
" style="fill:#1f77b4;opacity:0.5;"/>
   </g>
   <g id="patch_53">
    <path clip-path="url(#pfd8e831c8e)" d="M 236.16 20472.971125 
L 239.7312 20472.971125 
L 239.7312 20472.971125 
L 236.16 20472.971125 
z
" style="fill:#1f77b4;opacity:0.5;"/>
   </g>
   <g id="patch_54">
    <path clip-path="url(#pfd8e831c8e)" d="M 239.7312 20472.971125 
L 243.3024 20472.971125 
L 243.3024 20472.971125 
L 239.7312 20472.971125 
z
" style="fill:#1f77b4;opacity:0.5;"/>
   </g>
   <g id="patch_55">
    <path clip-path="url(#pfd8e831c8e)" d="M 243.3024 20472.971125 
L 246.8736 20472.971125 
L 246.8736 20472.971125 
L 243.3024 20472.971125 
z
" style="fill:#1f77b4;opacity:0.5;"/>
   </g>
   <g id="patch_56">
    <path clip-path="url(#pfd8e831c8e)" d="M 246.8736 20472.971125 
L 250.4448 20472.971125 
L 250.4448 20472.971125 
L 246.8736 20472.971125 
z
" style="fill:#1f77b4;opacity:0.5;"/>
   </g>
   <g id="patch_57">
    <path clip-path="url(#pfd8e831c8e)" d="M 250.4448 20472.971125 
L 254.016 20472.971125 
L 254.016 20472.971125 
L 250.4448 20472.971125 
z
" style="fill:#1f77b4;opacity:0.5;"/>
   </g>
   <g id="patch_58">
    <path clip-path="url(#pfd8e831c8e)" d="M 254.016 20472.971125 
L 257.5872 20472.971125 
L 257.5872 20472.971125 
L 254.016 20472.971125 
z
" style="fill:#1f77b4;opacity:0.5;"/>
   </g>
   <g id="patch_59">
    <path clip-path="url(#pfd8e831c8e)" d="M 257.5872 20472.971125 
L 261.1584 20472.971125 
L 261.1584 20472.971125 
L 257.5872 20472.971125 
z
" style="fill:#1f77b4;opacity:0.5;"/>
   </g>
   <g id="patch_60">
    <path clip-path="url(#pfd8e831c8e)" d="M 261.1584 20472.971125 
L 264.7296 20472.971125 
L 264.7296 20472.971125 
L 261.1584 20472.971125 
z
" style="fill:#1f77b4;opacity:0.5;"/>
   </g>
   <g id="patch_61">
    <path clip-path="url(#pfd8e831c8e)" d="M 264.7296 20472.971125 
L 268.3008 20472.971125 
L 268.3008 20472.971125 
L 264.7296 20472.971125 
z
" style="fill:#1f77b4;opacity:0.5;"/>
   </g>
   <g id="patch_62">
    <path clip-path="url(#pfd8e831c8e)" d="M 268.3008 20472.971125 
L 271.872 20472.971125 
L 271.872 20472.971125 
L 268.3008 20472.971125 
z
" style="fill:#1f77b4;opacity:0.5;"/>
   </g>
   <g id="patch_63">
    <path clip-path="url(#pfd8e831c8e)" d="M 271.872 20472.971125 
L 275.4432 20472.971125 
L 275.4432 20472.971125 
L 271.872 20472.971125 
z
" style="fill:#1f77b4;opacity:0.5;"/>
   </g>
   <g id="patch_64">
    <path clip-path="url(#pfd8e831c8e)" d="M 275.4432 20472.971125 
L 279.0144 20472.971125 
L 279.0144 20472.971125 
L 275.4432 20472.971125 
z
" style="fill:#1f77b4;opacity:0.5;"/>
   </g>
   <g id="patch_65">
    <path clip-path="url(#pfd8e831c8e)" d="M 279.0144 20472.971125 
L 282.5856 20472.971125 
L 282.5856 20472.971125 
L 279.0144 20472.971125 
z
" style="fill:#1f77b4;opacity:0.5;"/>
   </g>
   <g id="patch_66">
    <path clip-path="url(#pfd8e831c8e)" d="M 282.5856 20472.971125 
L 286.1568 20472.971125 
L 286.1568 20472.971125 
L 282.5856 20472.971125 
z
" style="fill:#1f77b4;opacity:0.5;"/>
   </g>
   <g id="patch_67">
    <path clip-path="url(#pfd8e831c8e)" d="M 286.1568 20472.971125 
L 289.728 20472.971125 
L 289.728 20472.971125 
L 286.1568 20472.971125 
z
" style="fill:#1f77b4;opacity:0.5;"/>
   </g>
   <g id="patch_68">
    <path clip-path="url(#pfd8e831c8e)" d="M 289.728 20472.971125 
L 293.2992 20472.971125 
L 293.2992 20472.971125 
L 289.728 20472.971125 
z
" style="fill:#1f77b4;opacity:0.5;"/>
   </g>
   <g id="patch_69">
    <path clip-path="url(#pfd8e831c8e)" d="M 293.2992 20472.971125 
L 296.8704 20472.971125 
L 296.8704 20472.971125 
L 293.2992 20472.971125 
z
" style="fill:#1f77b4;opacity:0.5;"/>
   </g>
   <g id="patch_70">
    <path clip-path="url(#pfd8e831c8e)" d="M 296.8704 20472.971125 
L 300.4416 20472.971125 
L 300.4416 20472.971125 
L 296.8704 20472.971125 
z
" style="fill:#1f77b4;opacity:0.5;"/>
   </g>
   <g id="patch_71">
    <path clip-path="url(#pfd8e831c8e)" d="M 300.4416 20472.971125 
L 304.0128 20472.971125 
L 304.0128 20472.971125 
L 300.4416 20472.971125 
z
" style="fill:#1f77b4;opacity:0.5;"/>
   </g>
   <g id="patch_72">
    <path clip-path="url(#pfd8e831c8e)" d="M 304.0128 20472.971125 
L 307.584 20472.971125 
L 307.584 20472.971125 
L 304.0128 20472.971125 
z
" style="fill:#1f77b4;opacity:0.5;"/>
   </g>
   <g id="patch_73">
    <path clip-path="url(#pfd8e831c8e)" d="M 307.584 20472.971125 
L 311.1552 20472.971125 
L 311.1552 20472.971125 
L 307.584 20472.971125 
z
" style="fill:#1f77b4;opacity:0.5;"/>
   </g>
   <g id="patch_74">
    <path clip-path="url(#pfd8e831c8e)" d="M 311.1552 20472.971125 
L 314.7264 20472.971125 
L 314.7264 20472.971125 
L 311.1552 20472.971125 
z
" style="fill:#1f77b4;opacity:0.5;"/>
   </g>
   <g id="patch_75">
    <path clip-path="url(#pfd8e831c8e)" d="M 314.7264 20472.971125 
L 318.2976 20472.971125 
L 318.2976 20472.971125 
L 314.7264 20472.971125 
z
" style="fill:#1f77b4;opacity:0.5;"/>
   </g>
   <g id="patch_76">
    <path clip-path="url(#pfd8e831c8e)" d="M 318.2976 20472.971125 
L 321.8688 20472.971125 
L 321.8688 20472.971125 
L 318.2976 20472.971125 
z
" style="fill:#1f77b4;opacity:0.5;"/>
   </g>
   <g id="patch_77">
    <path clip-path="url(#pfd8e831c8e)" d="M 321.8688 20472.971125 
L 325.44 20472.971125 
L 325.44 20472.971125 
L 321.8688 20472.971125 
z
" style="fill:#1f77b4;opacity:0.5;"/>
   </g>
   <g id="patch_78">
    <path clip-path="url(#pfd8e831c8e)" d="M 325.44 20472.971125 
L 329.0112 20472.971125 
L 329.0112 20472.971125 
L 325.44 20472.971125 
z
" style="fill:#1f77b4;opacity:0.5;"/>
   </g>
   <g id="patch_79">
    <path clip-path="url(#pfd8e831c8e)" d="M 329.0112 20472.971125 
L 332.5824 20472.971125 
L 332.5824 20472.971125 
L 329.0112 20472.971125 
z
" style="fill:#1f77b4;opacity:0.5;"/>
   </g>
   <g id="patch_80">
    <path clip-path="url(#pfd8e831c8e)" d="M 332.5824 20472.971125 
L 336.1536 20472.971125 
L 336.1536 20472.971125 
L 332.5824 20472.971125 
z
" style="fill:#1f77b4;opacity:0.5;"/>
   </g>
   <g id="patch_81">
    <path clip-path="url(#pfd8e831c8e)" d="M 336.1536 20472.971125 
L 339.7248 20472.971125 
L 339.7248 20472.971125 
L 336.1536 20472.971125 
z
" style="fill:#1f77b4;opacity:0.5;"/>
   </g>
   <g id="patch_82">
    <path clip-path="url(#pfd8e831c8e)" d="M 339.7248 20472.971125 
L 343.296 20472.971125 
L 343.296 20472.971125 
L 339.7248 20472.971125 
z
" style="fill:#1f77b4;opacity:0.5;"/>
   </g>
   <g id="patch_83">
    <path clip-path="url(#pfd8e831c8e)" d="M 343.296 20472.971125 
L 346.8672 20472.971125 
L 346.8672 20472.971125 
L 343.296 20472.971125 
z
" style="fill:#1f77b4;opacity:0.5;"/>
   </g>
   <g id="patch_84">
    <path clip-path="url(#pfd8e831c8e)" d="M 346.8672 20472.971125 
L 350.4384 20472.971125 
L 350.4384 20472.971125 
L 346.8672 20472.971125 
z
" style="fill:#1f77b4;opacity:0.5;"/>
   </g>
   <g id="patch_85">
    <path clip-path="url(#pfd8e831c8e)" d="M 350.4384 20472.971125 
L 354.0096 20472.971125 
L 354.0096 20472.971125 
L 350.4384 20472.971125 
z
" style="fill:#1f77b4;opacity:0.5;"/>
   </g>
   <g id="patch_86">
    <path clip-path="url(#pfd8e831c8e)" d="M 354.0096 20472.971125 
L 357.5808 20472.971125 
L 357.5808 20472.971125 
L 354.0096 20472.971125 
z
" style="fill:#1f77b4;opacity:0.5;"/>
   </g>
   <g id="patch_87">
    <path clip-path="url(#pfd8e831c8e)" d="M 357.5808 20472.971125 
L 361.152 20472.971125 
L 361.152 20472.971125 
L 357.5808 20472.971125 
z
" style="fill:#1f77b4;opacity:0.5;"/>
   </g>
   <g id="patch_88">
    <path clip-path="url(#pfd8e831c8e)" d="M 361.152 20472.971125 
L 364.7232 20472.971125 
L 364.7232 20472.971125 
L 361.152 20472.971125 
z
" style="fill:#1f77b4;opacity:0.5;"/>
   </g>
   <g id="patch_89">
    <path clip-path="url(#pfd8e831c8e)" d="M 364.7232 20472.971125 
L 368.2944 20472.971125 
L 368.2944 20472.971125 
L 364.7232 20472.971125 
z
" style="fill:#1f77b4;opacity:0.5;"/>
   </g>
   <g id="patch_90">
    <path clip-path="url(#pfd8e831c8e)" d="M 368.2944 20472.971125 
L 371.8656 20472.971125 
L 371.8656 20472.971125 
L 368.2944 20472.971125 
z
" style="fill:#1f77b4;opacity:0.5;"/>
   </g>
   <g id="patch_91">
    <path clip-path="url(#pfd8e831c8e)" d="M 371.8656 20472.971125 
L 375.4368 20472.971125 
L 375.4368 226.593434 
L 371.8656 226.593434 
z
" style="fill:#1f77b4;opacity:0.5;"/>
   </g>
   <g id="patch_92">
    <path clip-path="url(#pfd8e831c8e)" d="M 375.4368 20472.971125 
L 379.008 20472.971125 
L 379.008 20472.971125 
L 375.4368 20472.971125 
z
" style="fill:#1f77b4;opacity:0.5;"/>
   </g>
   <g id="patch_93">
    <path clip-path="url(#pfd8e831c8e)" d="M 379.008 20472.971125 
L 382.5792 20472.971125 
L 382.5792 20472.971125 
L 379.008 20472.971125 
z
" style="fill:#1f77b4;opacity:0.5;"/>
   </g>
   <g id="patch_94">
    <path clip-path="url(#pfd8e831c8e)" d="M 382.5792 20472.971125 
L 386.1504 20472.971125 
L 386.1504 20472.971125 
L 382.5792 20472.971125 
z
" style="fill:#1f77b4;opacity:0.5;"/>
   </g>
   <g id="patch_95">
    <path clip-path="url(#pfd8e831c8e)" d="M 386.1504 20472.971125 
L 389.7216 20472.971125 
L 389.7216 20472.971125 
L 386.1504 20472.971125 
z
" style="fill:#1f77b4;opacity:0.5;"/>
   </g>
   <g id="patch_96">
    <path clip-path="url(#pfd8e831c8e)" d="M 389.7216 20472.971125 
L 393.2928 20472.971125 
L 393.2928 20472.971125 
L 389.7216 20472.971125 
z
" style="fill:#1f77b4;opacity:0.5;"/>
   </g>
   <g id="patch_97">
    <path clip-path="url(#pfd8e831c8e)" d="M 393.2928 20472.971125 
L 396.864 20472.971125 
L 396.864 20472.971125 
L 393.2928 20472.971125 
z
" style="fill:#1f77b4;opacity:0.5;"/>
   </g>
   <g id="patch_98">
    <path clip-path="url(#pfd8e831c8e)" d="M 396.864 20472.971125 
L 400.4352 20472.971125 
L 400.4352 20472.971125 
L 396.864 20472.971125 
z
" style="fill:#1f77b4;opacity:0.5;"/>
   </g>
   <g id="patch_99">
    <path clip-path="url(#pfd8e831c8e)" d="M 400.4352 20472.971125 
L 404.0064 20472.971125 
L 404.0064 20472.971125 
L 400.4352 20472.971125 
z
" style="fill:#1f77b4;opacity:0.5;"/>
   </g>
   <g id="patch_100">
    <path clip-path="url(#pfd8e831c8e)" d="M 404.0064 20472.971125 
L 407.5776 20472.971125 
L 407.5776 20472.971125 
L 404.0064 20472.971125 
z
" style="fill:#1f77b4;opacity:0.5;"/>
   </g>
   <g id="patch_101">
    <path clip-path="url(#pfd8e831c8e)" d="M 407.5776 20472.971125 
L 411.1488 20472.971125 
L 411.1488 276.516602 
L 407.5776 276.516602 
z
" style="fill:#1f77b4;opacity:0.5;"/>
   </g>
   <g id="patch_102">
    <path clip-path="url(#pfd8e831c8e)" d="M 411.1488 20472.971125 
L 414.72 20472.971125 
L 414.72 224.045326 
L 411.1488 224.045326 
z
" style="fill:#1f77b4;opacity:0.5;"/>
   </g>
   <g id="patch_103">
    <path clip-path="url(#pfd8e831c8e)" d="M 57.6 20472.971125 
L 61.1712 20472.971125 
L 61.1712 287.28534 
L 57.6 287.28534 
z
" style="fill:#ff7f0e;opacity:0.5;"/>
   </g>
   <g id="patch_104">
    <path clip-path="url(#pfd8e831c8e)" d="M 61.1712 20472.971125 
L 64.7424 20472.971125 
L 64.7424 20472.971125 
L 61.1712 20472.971125 
z
" style="fill:#ff7f0e;opacity:0.5;"/>
   </g>
   <g id="patch_105">
    <path clip-path="url(#pfd8e831c8e)" d="M 64.7424 20472.971125 
L 68.3136 20472.971125 
L 68.3136 20472.971125 
L 64.7424 20472.971125 
z
" style="fill:#ff7f0e;opacity:0.5;"/>
   </g>
   <g id="patch_106">
    <path clip-path="url(#pfd8e831c8e)" d="M 68.3136 20472.971125 
L 71.8848 20472.971125 
L 71.8848 20472.971125 
L 68.3136 20472.971125 
z
" style="fill:#ff7f0e;opacity:0.5;"/>
   </g>
   <g id="patch_107">
    <path clip-path="url(#pfd8e831c8e)" d="M 71.8848 20472.971125 
L 75.456 20472.971125 
L 75.456 20472.971125 
L 71.8848 20472.971125 
z
" style="fill:#ff7f0e;opacity:0.5;"/>
   </g>
   <g id="patch_108">
    <path clip-path="url(#pfd8e831c8e)" d="M 75.456 20472.971125 
L 79.0272 20472.971125 
L 79.0272 20472.971125 
L 75.456 20472.971125 
z
" style="fill:#ff7f0e;opacity:0.5;"/>
   </g>
   <g id="patch_109">
    <path clip-path="url(#pfd8e831c8e)" d="M 79.0272 20472.971125 
L 82.5984 20472.971125 
L 82.5984 20472.971125 
L 79.0272 20472.971125 
z
" style="fill:#ff7f0e;opacity:0.5;"/>
   </g>
   <g id="patch_110">
    <path clip-path="url(#pfd8e831c8e)" d="M 82.5984 20472.971125 
L 86.1696 20472.971125 
L 86.1696 20472.971125 
L 82.5984 20472.971125 
z
" style="fill:#ff7f0e;opacity:0.5;"/>
   </g>
   <g id="patch_111">
    <path clip-path="url(#pfd8e831c8e)" d="M 86.1696 20472.971125 
L 89.7408 20472.971125 
L 89.7408 20472.971125 
L 86.1696 20472.971125 
z
" style="fill:#ff7f0e;opacity:0.5;"/>
   </g>
   <g id="patch_112">
    <path clip-path="url(#pfd8e831c8e)" d="M 89.7408 20472.971125 
L 93.312 20472.971125 
L 93.312 20472.971125 
L 89.7408 20472.971125 
z
" style="fill:#ff7f0e;opacity:0.5;"/>
   </g>
   <g id="patch_113">
    <path clip-path="url(#pfd8e831c8e)" d="M 93.312 20472.971125 
L 96.8832 20472.971125 
L 96.8832 20472.971125 
L 93.312 20472.971125 
z
" style="fill:#ff7f0e;opacity:0.5;"/>
   </g>
   <g id="patch_114">
    <path clip-path="url(#pfd8e831c8e)" d="M 96.8832 20472.971125 
L 100.4544 20472.971125 
L 100.4544 20472.971125 
L 96.8832 20472.971125 
z
" style="fill:#ff7f0e;opacity:0.5;"/>
   </g>
   <g id="patch_115">
    <path clip-path="url(#pfd8e831c8e)" d="M 100.4544 20472.971125 
L 104.0256 20472.971125 
L 104.0256 20472.971125 
L 100.4544 20472.971125 
z
" style="fill:#ff7f0e;opacity:0.5;"/>
   </g>
   <g id="patch_116">
    <path clip-path="url(#pfd8e831c8e)" d="M 104.0256 20472.971125 
L 107.5968 20472.971125 
L 107.5968 20472.971125 
L 104.0256 20472.971125 
z
" style="fill:#ff7f0e;opacity:0.5;"/>
   </g>
   <g id="patch_117">
    <path clip-path="url(#pfd8e831c8e)" d="M 107.5968 20472.971125 
L 111.168 20472.971125 
L 111.168 20472.971125 
L 107.5968 20472.971125 
z
" style="fill:#ff7f0e;opacity:0.5;"/>
   </g>
   <g id="patch_118">
    <path clip-path="url(#pfd8e831c8e)" d="M 111.168 20472.971125 
L 114.7392 20472.971125 
L 114.7392 287.28534 
L 111.168 287.28534 
z
" style="fill:#ff7f0e;opacity:0.5;"/>
   </g>
   <g id="patch_119">
    <path clip-path="url(#pfd8e831c8e)" d="M 114.7392 20472.971125 
L 118.3104 20472.971125 
L 118.3104 307.584 
L 114.7392 307.584 
z
" style="fill:#ff7f0e;opacity:0.5;"/>
   </g>
   <g id="patch_120">
    <path clip-path="url(#pfd8e831c8e)" d="M 118.3104 20472.971125 
L 121.8816 20472.971125 
L 121.8816 20472.971125 
L 118.3104 20472.971125 
z
" style="fill:#ff7f0e;opacity:0.5;"/>
   </g>
   <g id="patch_121">
    <path clip-path="url(#pfd8e831c8e)" d="M 121.8816 20472.971125 
L 125.4528 20472.971125 
L 125.4528 20472.971125 
L 121.8816 20472.971125 
z
" style="fill:#ff7f0e;opacity:0.5;"/>
   </g>
   <g id="patch_122">
    <path clip-path="url(#pfd8e831c8e)" d="M 125.4528 20472.971125 
L 129.024 20472.971125 
L 129.024 20472.971125 
L 125.4528 20472.971125 
z
" style="fill:#ff7f0e;opacity:0.5;"/>
   </g>
   <g id="patch_123">
    <path clip-path="url(#pfd8e831c8e)" d="M 129.024 20472.971125 
L 132.5952 20472.971125 
L 132.5952 20472.971125 
L 129.024 20472.971125 
z
" style="fill:#ff7f0e;opacity:0.5;"/>
   </g>
   <g id="patch_124">
    <path clip-path="url(#pfd8e831c8e)" d="M 132.5952 20472.971125 
L 136.1664 20472.971125 
L 136.1664 20472.971125 
L 132.5952 20472.971125 
z
" style="fill:#ff7f0e;opacity:0.5;"/>
   </g>
   <g id="patch_125">
    <path clip-path="url(#pfd8e831c8e)" d="M 136.1664 20472.971125 
L 139.7376 20472.971125 
L 139.7376 20472.971125 
L 136.1664 20472.971125 
z
" style="fill:#ff7f0e;opacity:0.5;"/>
   </g>
   <g id="patch_126">
    <path clip-path="url(#pfd8e831c8e)" d="M 139.7376 20472.971125 
L 143.3088 20472.971125 
L 143.3088 20472.971125 
L 139.7376 20472.971125 
z
" style="fill:#ff7f0e;opacity:0.5;"/>
   </g>
   <g id="patch_127">
    <path clip-path="url(#pfd8e831c8e)" d="M 143.3088 20472.971125 
L 146.88 20472.971125 
L 146.88 20472.971125 
L 143.3088 20472.971125 
z
" style="fill:#ff7f0e;opacity:0.5;"/>
   </g>
   <g id="patch_128">
    <path clip-path="url(#pfd8e831c8e)" d="M 146.88 20472.971125 
L 150.4512 20472.971125 
L 150.4512 20472.971125 
L 146.88 20472.971125 
z
" style="fill:#ff7f0e;opacity:0.5;"/>
   </g>
   <g id="patch_129">
    <path clip-path="url(#pfd8e831c8e)" d="M 150.4512 20472.971125 
L 154.0224 20472.971125 
L 154.0224 20472.971125 
L 150.4512 20472.971125 
z
" style="fill:#ff7f0e;opacity:0.5;"/>
   </g>
   <g id="patch_130">
    <path clip-path="url(#pfd8e831c8e)" d="M 154.0224 20472.971125 
L 157.5936 20472.971125 
L 157.5936 20472.971125 
L 154.0224 20472.971125 
z
" style="fill:#ff7f0e;opacity:0.5;"/>
   </g>
   <g id="patch_131">
    <path clip-path="url(#pfd8e831c8e)" d="M 157.5936 20472.971125 
L 161.1648 20472.971125 
L 161.1648 20472.971125 
L 157.5936 20472.971125 
z
" style="fill:#ff7f0e;opacity:0.5;"/>
   </g>
   <g id="patch_132">
    <path clip-path="url(#pfd8e831c8e)" d="M 161.1648 20472.971125 
L 164.736 20472.971125 
L 164.736 20472.971125 
L 161.1648 20472.971125 
z
" style="fill:#ff7f0e;opacity:0.5;"/>
   </g>
   <g id="patch_133">
    <path clip-path="url(#pfd8e831c8e)" d="M 164.736 20472.971125 
L 168.3072 20472.971125 
L 168.3072 20472.971125 
L 164.736 20472.971125 
z
" style="fill:#ff7f0e;opacity:0.5;"/>
   </g>
   <g id="patch_134">
    <path clip-path="url(#pfd8e831c8e)" d="M 168.3072 20472.971125 
L 171.8784 20472.971125 
L 171.8784 20472.971125 
L 168.3072 20472.971125 
z
" style="fill:#ff7f0e;opacity:0.5;"/>
   </g>
   <g id="patch_135">
    <path clip-path="url(#pfd8e831c8e)" d="M 171.8784 20472.971125 
L 175.4496 20472.971125 
L 175.4496 20472.971125 
L 171.8784 20472.971125 
z
" style="fill:#ff7f0e;opacity:0.5;"/>
   </g>
   <g id="patch_136">
    <path clip-path="url(#pfd8e831c8e)" d="M 175.4496 20472.971125 
L 179.0208 20472.971125 
L 179.0208 20472.971125 
L 175.4496 20472.971125 
z
" style="fill:#ff7f0e;opacity:0.5;"/>
   </g>
   <g id="patch_137">
    <path clip-path="url(#pfd8e831c8e)" d="M 179.0208 20472.971125 
L 182.592 20472.971125 
L 182.592 20472.971125 
L 179.0208 20472.971125 
z
" style="fill:#ff7f0e;opacity:0.5;"/>
   </g>
   <g id="patch_138">
    <path clip-path="url(#pfd8e831c8e)" d="M 182.592 20472.971125 
L 186.1632 20472.971125 
L 186.1632 20472.971125 
L 182.592 20472.971125 
z
" style="fill:#ff7f0e;opacity:0.5;"/>
   </g>
   <g id="patch_139">
    <path clip-path="url(#pfd8e831c8e)" d="M 186.1632 20472.971125 
L 189.7344 20472.971125 
L 189.7344 20472.971125 
L 186.1632 20472.971125 
z
" style="fill:#ff7f0e;opacity:0.5;"/>
   </g>
   <g id="patch_140">
    <path clip-path="url(#pfd8e831c8e)" d="M 189.7344 20472.971125 
L 193.3056 20472.971125 
L 193.3056 20472.971125 
L 189.7344 20472.971125 
z
" style="fill:#ff7f0e;opacity:0.5;"/>
   </g>
   <g id="patch_141">
    <path clip-path="url(#pfd8e831c8e)" d="M 193.3056 20472.971125 
L 196.8768 20472.971125 
L 196.8768 20472.971125 
L 193.3056 20472.971125 
z
" style="fill:#ff7f0e;opacity:0.5;"/>
   </g>
   <g id="patch_142">
    <path clip-path="url(#pfd8e831c8e)" d="M 196.8768 20472.971125 
L 200.448 20472.971125 
L 200.448 20472.971125 
L 196.8768 20472.971125 
z
" style="fill:#ff7f0e;opacity:0.5;"/>
   </g>
   <g id="patch_143">
    <path clip-path="url(#pfd8e831c8e)" d="M 200.448 20472.971125 
L 204.0192 20472.971125 
L 204.0192 20472.971125 
L 200.448 20472.971125 
z
" style="fill:#ff7f0e;opacity:0.5;"/>
   </g>
   <g id="patch_144">
    <path clip-path="url(#pfd8e831c8e)" d="M 204.0192 20472.971125 
L 207.5904 20472.971125 
L 207.5904 20472.971125 
L 204.0192 20472.971125 
z
" style="fill:#ff7f0e;opacity:0.5;"/>
   </g>
   <g id="patch_145">
    <path clip-path="url(#pfd8e831c8e)" d="M 207.5904 20472.971125 
L 211.1616 20472.971125 
L 211.1616 20472.971125 
L 207.5904 20472.971125 
z
" style="fill:#ff7f0e;opacity:0.5;"/>
   </g>
   <g id="patch_146">
    <path clip-path="url(#pfd8e831c8e)" d="M 211.1616 20472.971125 
L 214.7328 20472.971125 
L 214.7328 20472.971125 
L 211.1616 20472.971125 
z
" style="fill:#ff7f0e;opacity:0.5;"/>
   </g>
   <g id="patch_147">
    <path clip-path="url(#pfd8e831c8e)" d="M 214.7328 20472.971125 
L 218.304 20472.971125 
L 218.304 20472.971125 
L 214.7328 20472.971125 
z
" style="fill:#ff7f0e;opacity:0.5;"/>
   </g>
   <g id="patch_148">
    <path clip-path="url(#pfd8e831c8e)" d="M 218.304 20472.971125 
L 221.8752 20472.971125 
L 221.8752 20472.971125 
L 218.304 20472.971125 
z
" style="fill:#ff7f0e;opacity:0.5;"/>
   </g>
   <g id="patch_149">
    <path clip-path="url(#pfd8e831c8e)" d="M 221.8752 20472.971125 
L 225.4464 20472.971125 
L 225.4464 20472.971125 
L 221.8752 20472.971125 
z
" style="fill:#ff7f0e;opacity:0.5;"/>
   </g>
   <g id="patch_150">
    <path clip-path="url(#pfd8e831c8e)" d="M 225.4464 20472.971125 
L 229.0176 20472.971125 
L 229.0176 307.584 
L 225.4464 307.584 
z
" style="fill:#ff7f0e;opacity:0.5;"/>
   </g>
   <g id="patch_151">
    <path clip-path="url(#pfd8e831c8e)" d="M 229.0176 20472.971125 
L 232.5888 20472.971125 
L 232.5888 20472.971125 
L 229.0176 20472.971125 
z
" style="fill:#ff7f0e;opacity:0.5;"/>
   </g>
   <g id="patch_152">
    <path clip-path="url(#pfd8e831c8e)" d="M 232.5888 20472.971125 
L 236.16 20472.971125 
L 236.16 20472.971125 
L 232.5888 20472.971125 
z
" style="fill:#ff7f0e;opacity:0.5;"/>
   </g>
   <g id="patch_153">
    <path clip-path="url(#pfd8e831c8e)" d="M 236.16 20472.971125 
L 239.7312 20472.971125 
L 239.7312 20472.971125 
L 236.16 20472.971125 
z
" style="fill:#ff7f0e;opacity:0.5;"/>
   </g>
   <g id="patch_154">
    <path clip-path="url(#pfd8e831c8e)" d="M 239.7312 20472.971125 
L 243.3024 20472.971125 
L 243.3024 20472.971125 
L 239.7312 20472.971125 
z
" style="fill:#ff7f0e;opacity:0.5;"/>
   </g>
   <g id="patch_155">
    <path clip-path="url(#pfd8e831c8e)" d="M 243.3024 20472.971125 
L 246.8736 20472.971125 
L 246.8736 20472.971125 
L 243.3024 20472.971125 
z
" style="fill:#ff7f0e;opacity:0.5;"/>
   </g>
   <g id="patch_156">
    <path clip-path="url(#pfd8e831c8e)" d="M 246.8736 20472.971125 
L 250.4448 20472.971125 
L 250.4448 20472.971125 
L 246.8736 20472.971125 
z
" style="fill:#ff7f0e;opacity:0.5;"/>
   </g>
   <g id="patch_157">
    <path clip-path="url(#pfd8e831c8e)" d="M 250.4448 20472.971125 
L 254.016 20472.971125 
L 254.016 20472.971125 
L 250.4448 20472.971125 
z
" style="fill:#ff7f0e;opacity:0.5;"/>
   </g>
   <g id="patch_158">
    <path clip-path="url(#pfd8e831c8e)" d="M 254.016 20472.971125 
L 257.5872 20472.971125 
L 257.5872 20472.971125 
L 254.016 20472.971125 
z
" style="fill:#ff7f0e;opacity:0.5;"/>
   </g>
   <g id="patch_159">
    <path clip-path="url(#pfd8e831c8e)" d="M 257.5872 20472.971125 
L 261.1584 20472.971125 
L 261.1584 20472.971125 
L 257.5872 20472.971125 
z
" style="fill:#ff7f0e;opacity:0.5;"/>
   </g>
   <g id="patch_160">
    <path clip-path="url(#pfd8e831c8e)" d="M 261.1584 20472.971125 
L 264.7296 20472.971125 
L 264.7296 20472.971125 
L 261.1584 20472.971125 
z
" style="fill:#ff7f0e;opacity:0.5;"/>
   </g>
   <g id="patch_161">
    <path clip-path="url(#pfd8e831c8e)" d="M 264.7296 20472.971125 
L 268.3008 20472.971125 
L 268.3008 20472.971125 
L 264.7296 20472.971125 
z
" style="fill:#ff7f0e;opacity:0.5;"/>
   </g>
   <g id="patch_162">
    <path clip-path="url(#pfd8e831c8e)" d="M 268.3008 20472.971125 
L 271.872 20472.971125 
L 271.872 20472.971125 
L 268.3008 20472.971125 
z
" style="fill:#ff7f0e;opacity:0.5;"/>
   </g>
   <g id="patch_163">
    <path clip-path="url(#pfd8e831c8e)" d="M 271.872 20472.971125 
L 275.4432 20472.971125 
L 275.4432 20472.971125 
L 271.872 20472.971125 
z
" style="fill:#ff7f0e;opacity:0.5;"/>
   </g>
   <g id="patch_164">
    <path clip-path="url(#pfd8e831c8e)" d="M 275.4432 20472.971125 
L 279.0144 20472.971125 
L 279.0144 20472.971125 
L 275.4432 20472.971125 
z
" style="fill:#ff7f0e;opacity:0.5;"/>
   </g>
   <g id="patch_165">
    <path clip-path="url(#pfd8e831c8e)" d="M 279.0144 20472.971125 
L 282.5856 20472.971125 
L 282.5856 307.584 
L 279.0144 307.584 
z
" style="fill:#ff7f0e;opacity:0.5;"/>
   </g>
   <g id="patch_166">
    <path clip-path="url(#pfd8e831c8e)" d="M 282.5856 20472.971125 
L 286.1568 20472.971125 
L 286.1568 20472.971125 
L 282.5856 20472.971125 
z
" style="fill:#ff7f0e;opacity:0.5;"/>
   </g>
   <g id="patch_167">
    <path clip-path="url(#pfd8e831c8e)" d="M 286.1568 20472.971125 
L 289.728 20472.971125 
L 289.728 307.584 
L 286.1568 307.584 
z
" style="fill:#ff7f0e;opacity:0.5;"/>
   </g>
   <g id="patch_168">
    <path clip-path="url(#pfd8e831c8e)" d="M 289.728 20472.971125 
L 293.2992 20472.971125 
L 293.2992 307.584 
L 289.728 307.584 
z
" style="fill:#ff7f0e;opacity:0.5;"/>
   </g>
   <g id="patch_169">
    <path clip-path="url(#pfd8e831c8e)" d="M 293.2992 20472.971125 
L 296.8704 20472.971125 
L 296.8704 307.584 
L 293.2992 307.584 
z
" style="fill:#ff7f0e;opacity:0.5;"/>
   </g>
   <g id="patch_170">
    <path clip-path="url(#pfd8e831c8e)" d="M 296.8704 20472.971125 
L 300.4416 20472.971125 
L 300.4416 20472.971125 
L 296.8704 20472.971125 
z
" style="fill:#ff7f0e;opacity:0.5;"/>
   </g>
   <g id="patch_171">
    <path clip-path="url(#pfd8e831c8e)" d="M 300.4416 20472.971125 
L 304.0128 20472.971125 
L 304.0128 307.584 
L 300.4416 307.584 
z
" style="fill:#ff7f0e;opacity:0.5;"/>
   </g>
   <g id="patch_172">
    <path clip-path="url(#pfd8e831c8e)" d="M 304.0128 20472.971125 
L 307.584 20472.971125 
L 307.584 20472.971125 
L 304.0128 20472.971125 
z
" style="fill:#ff7f0e;opacity:0.5;"/>
   </g>
   <g id="patch_173">
    <path clip-path="url(#pfd8e831c8e)" d="M 307.584 20472.971125 
L 311.1552 20472.971125 
L 311.1552 20472.971125 
L 307.584 20472.971125 
z
" style="fill:#ff7f0e;opacity:0.5;"/>
   </g>
   <g id="patch_174">
    <path clip-path="url(#pfd8e831c8e)" d="M 311.1552 20472.971125 
L 314.7264 20472.971125 
L 314.7264 20472.971125 
L 311.1552 20472.971125 
z
" style="fill:#ff7f0e;opacity:0.5;"/>
   </g>
   <g id="patch_175">
    <path clip-path="url(#pfd8e831c8e)" d="M 314.7264 20472.971125 
L 318.2976 20472.971125 
L 318.2976 20472.971125 
L 314.7264 20472.971125 
z
" style="fill:#ff7f0e;opacity:0.5;"/>
   </g>
   <g id="patch_176">
    <path clip-path="url(#pfd8e831c8e)" d="M 318.2976 20472.971125 
L 321.8688 20472.971125 
L 321.8688 307.584 
L 318.2976 307.584 
z
" style="fill:#ff7f0e;opacity:0.5;"/>
   </g>
   <g id="patch_177">
    <path clip-path="url(#pfd8e831c8e)" d="M 321.8688 20472.971125 
L 325.44 20472.971125 
L 325.44 20472.971125 
L 321.8688 20472.971125 
z
" style="fill:#ff7f0e;opacity:0.5;"/>
   </g>
   <g id="patch_178">
    <path clip-path="url(#pfd8e831c8e)" d="M 325.44 20472.971125 
L 329.0112 20472.971125 
L 329.0112 307.584 
L 325.44 307.584 
z
" style="fill:#ff7f0e;opacity:0.5;"/>
   </g>
   <g id="patch_179">
    <path clip-path="url(#pfd8e831c8e)" d="M 329.0112 20472.971125 
L 332.5824 20472.971125 
L 332.5824 20472.971125 
L 329.0112 20472.971125 
z
" style="fill:#ff7f0e;opacity:0.5;"/>
   </g>
   <g id="patch_180">
    <path clip-path="url(#pfd8e831c8e)" d="M 332.5824 20472.971125 
L 336.1536 20472.971125 
L 336.1536 287.28534 
L 332.5824 287.28534 
z
" style="fill:#ff7f0e;opacity:0.5;"/>
   </g>
   <g id="patch_181">
    <path clip-path="url(#pfd8e831c8e)" d="M 336.1536 20472.971125 
L 339.7248 20472.971125 
L 339.7248 20472.971125 
L 336.1536 20472.971125 
z
" style="fill:#ff7f0e;opacity:0.5;"/>
   </g>
   <g id="patch_182">
    <path clip-path="url(#pfd8e831c8e)" d="M 339.7248 20472.971125 
L 343.296 20472.971125 
L 343.296 307.584 
L 339.7248 307.584 
z
" style="fill:#ff7f0e;opacity:0.5;"/>
   </g>
   <g id="patch_183">
    <path clip-path="url(#pfd8e831c8e)" d="M 343.296 20472.971125 
L 346.8672 20472.971125 
L 346.8672 307.584 
L 343.296 307.584 
z
" style="fill:#ff7f0e;opacity:0.5;"/>
   </g>
   <g id="patch_184">
    <path clip-path="url(#pfd8e831c8e)" d="M 346.8672 20472.971125 
L 350.4384 20472.971125 
L 350.4384 266.986679 
L 346.8672 266.986679 
z
" style="fill:#ff7f0e;opacity:0.5;"/>
   </g>
   <g id="patch_185">
    <path clip-path="url(#pfd8e831c8e)" d="M 350.4384 20472.971125 
L 354.0096 20472.971125 
L 354.0096 307.584 
L 350.4384 307.584 
z
" style="fill:#ff7f0e;opacity:0.5;"/>
   </g>
   <g id="patch_186">
    <path clip-path="url(#pfd8e831c8e)" d="M 354.0096 20472.971125 
L 357.5808 20472.971125 
L 357.5808 287.28534 
L 354.0096 287.28534 
z
" style="fill:#ff7f0e;opacity:0.5;"/>
   </g>
   <g id="patch_187">
    <path clip-path="url(#pfd8e831c8e)" d="M 357.5808 20472.971125 
L 361.152 20472.971125 
L 361.152 307.584 
L 357.5808 307.584 
z
" style="fill:#ff7f0e;opacity:0.5;"/>
   </g>
   <g id="patch_188">
    <path clip-path="url(#pfd8e831c8e)" d="M 361.152 20472.971125 
L 364.7232 20472.971125 
L 364.7232 275.411384 
L 361.152 275.411384 
z
" style="fill:#ff7f0e;opacity:0.5;"/>
   </g>
   <g id="patch_189">
    <path clip-path="url(#pfd8e831c8e)" d="M 364.7232 20472.971125 
L 368.2944 20472.971125 
L 368.2944 20472.971125 
L 364.7232 20472.971125 
z
" style="fill:#ff7f0e;opacity:0.5;"/>
   </g>
   <g id="patch_190">
    <path clip-path="url(#pfd8e831c8e)" d="M 368.2944 20472.971125 
L 371.8656 20472.971125 
L 371.8656 20472.971125 
L 368.2944 20472.971125 
z
" style="fill:#ff7f0e;opacity:0.5;"/>
   </g>
   <g id="patch_191">
    <path clip-path="url(#pfd8e831c8e)" d="M 371.8656 20472.971125 
L 375.4368 20472.971125 
L 375.4368 260.45197 
L 371.8656 260.45197 
z
" style="fill:#ff7f0e;opacity:0.5;"/>
   </g>
   <g id="patch_192">
    <path clip-path="url(#pfd8e831c8e)" d="M 375.4368 20472.971125 
L 379.008 20472.971125 
L 379.008 287.28534 
L 375.4368 287.28534 
z
" style="fill:#ff7f0e;opacity:0.5;"/>
   </g>
   <g id="patch_193">
    <path clip-path="url(#pfd8e831c8e)" d="M 379.008 20472.971125 
L 382.5792 20472.971125 
L 382.5792 275.411384 
L 379.008 275.411384 
z
" style="fill:#ff7f0e;opacity:0.5;"/>
   </g>
   <g id="patch_194">
    <path clip-path="url(#pfd8e831c8e)" d="M 382.5792 20472.971125 
L 386.1504 20472.971125 
L 386.1504 266.986679 
L 382.5792 266.986679 
z
" style="fill:#ff7f0e;opacity:0.5;"/>
   </g>
   <g id="patch_195">
    <path clip-path="url(#pfd8e831c8e)" d="M 386.1504 20472.971125 
L 389.7216 20472.971125 
L 389.7216 255.112724 
L 386.1504 255.112724 
z
" style="fill:#ff7f0e;opacity:0.5;"/>
   </g>
   <g id="patch_196">
    <path clip-path="url(#pfd8e831c8e)" d="M 389.7216 20472.971125 
L 393.2928 20472.971125 
L 393.2928 255.112724 
L 389.7216 255.112724 
z
" style="fill:#ff7f0e;opacity:0.5;"/>
   </g>
   <g id="patch_197">
    <path clip-path="url(#pfd8e831c8e)" d="M 393.2928 20472.971125 
L 396.864 20472.971125 
L 396.864 218.42584 
L 393.2928 218.42584 
z
" style="fill:#ff7f0e;opacity:0.5;"/>
   </g>
   <g id="patch_198">
    <path clip-path="url(#pfd8e831c8e)" d="M 396.864 20472.971125 
L 400.4352 20472.971125 
L 400.4352 221.356762 
L 396.864 221.356762 
z
" style="fill:#ff7f0e;opacity:0.5;"/>
   </g>
   <g id="patch_199">
    <path clip-path="url(#pfd8e831c8e)" d="M 400.4352 20472.971125 
L 404.0064 20472.971125 
L 404.0064 192.441364 
L 400.4352 192.441364 
z
" style="fill:#ff7f0e;opacity:0.5;"/>
   </g>
   <g id="patch_200">
    <path clip-path="url(#pfd8e831c8e)" d="M 404.0064 20472.971125 
L 407.5776 20472.971125 
L 407.5776 184.450516 
L 404.0064 184.450516 
z
" style="fill:#ff7f0e;opacity:0.5;"/>
   </g>
   <g id="patch_201">
    <path clip-path="url(#pfd8e831c8e)" d="M 407.5776 20472.971125 
L 411.1488 20472.971125 
L 411.1488 167.383374 
L 407.5776 167.383374 
z
" style="fill:#ff7f0e;opacity:0.5;"/>
   </g>
   <g id="patch_202">
    <path clip-path="url(#pfd8e831c8e)" d="M 411.1488 20472.971125 
L 414.72 20472.971125 
L 414.72 122.693156 
L 411.1488 122.693156 
z
" style="fill:#ff7f0e;opacity:0.5;"/>
   </g>
   <g id="matplotlib.axis_1">
    <g id="xtick_1">
     <g id="line2d_1">
      <defs>
       <path d="M 0 0 
L 0 3.5 
" id="me12e57b90b" style="stroke:#000000;stroke-width:0.8;"/>
      </defs>
      <g>
       <use style="stroke:#000000;stroke-width:0.8;" x="57.6" xlink:href="#me12e57b90b" y="307.584"/>
      </g>
     </g>
     <g id="text_1">
      <!-- 0.0 -->
      <defs>
       <path d="M 31.78125 66.40625 
Q 24.171875 66.40625 20.328125 58.90625 
Q 16.5 51.421875 16.5 36.375 
Q 16.5 21.390625 20.328125 13.890625 
Q 24.171875 6.390625 31.78125 6.390625 
Q 39.453125 6.390625 43.28125 13.890625 
Q 47.125 21.390625 47.125 36.375 
Q 47.125 51.421875 43.28125 58.90625 
Q 39.453125 66.40625 31.78125 66.40625 
z
M 31.78125 74.21875 
Q 44.046875 74.21875 50.515625 64.515625 
Q 56.984375 54.828125 56.984375 36.375 
Q 56.984375 17.96875 50.515625 8.265625 
Q 44.046875 -1.421875 31.78125 -1.421875 
Q 19.53125 -1.421875 13.0625 8.265625 
Q 6.59375 17.96875 6.59375 36.375 
Q 6.59375 54.828125 13.0625 64.515625 
Q 19.53125 74.21875 31.78125 74.21875 
z
" id="DejaVuSans-30"/>
       <path d="M 10.6875 12.40625 
L 21 12.40625 
L 21 0 
L 10.6875 0 
z
" id="DejaVuSans-2e"/>
      </defs>
      <g transform="translate(49.648438 322.182437)scale(0.1 -0.1)">
       <use xlink:href="#DejaVuSans-30"/>
       <use x="63.623047" xlink:href="#DejaVuSans-2e"/>
       <use x="95.410156" xlink:href="#DejaVuSans-30"/>
      </g>
     </g>
    </g>
    <g id="xtick_2">
     <g id="line2d_2">
      <g>
       <use style="stroke:#000000;stroke-width:0.8;" x="129.024" xlink:href="#me12e57b90b" y="307.584"/>
      </g>
     </g>
     <g id="text_2">
      <!-- 0.2 -->
      <defs>
       <path d="M 19.1875 8.296875 
L 53.609375 8.296875 
L 53.609375 0 
L 7.328125 0 
L 7.328125 8.296875 
Q 12.9375 14.109375 22.625 23.890625 
Q 32.328125 33.6875 34.8125 36.53125 
Q 39.546875 41.84375 41.421875 45.53125 
Q 43.3125 49.21875 43.3125 52.78125 
Q 43.3125 58.59375 39.234375 62.25 
Q 35.15625 65.921875 28.609375 65.921875 
Q 23.96875 65.921875 18.8125 64.3125 
Q 13.671875 62.703125 7.8125 59.421875 
L 7.8125 69.390625 
Q 13.765625 71.78125 18.9375 73 
Q 24.125 74.21875 28.421875 74.21875 
Q 39.75 74.21875 46.484375 68.546875 
Q 53.21875 62.890625 53.21875 53.421875 
Q 53.21875 48.921875 51.53125 44.890625 
Q 49.859375 40.875 45.40625 35.40625 
Q 44.1875 33.984375 37.640625 27.21875 
Q 31.109375 20.453125 19.1875 8.296875 
z
" id="DejaVuSans-32"/>
      </defs>
      <g transform="translate(121.072438 322.182437)scale(0.1 -0.1)">
       <use xlink:href="#DejaVuSans-30"/>
       <use x="63.623047" xlink:href="#DejaVuSans-2e"/>
       <use x="95.410156" xlink:href="#DejaVuSans-32"/>
      </g>
     </g>
    </g>
    <g id="xtick_3">
     <g id="line2d_3">
      <g>
       <use style="stroke:#000000;stroke-width:0.8;" x="200.448" xlink:href="#me12e57b90b" y="307.584"/>
      </g>
     </g>
     <g id="text_3">
      <!-- 0.4 -->
      <defs>
       <path d="M 37.796875 64.3125 
L 12.890625 25.390625 
L 37.796875 25.390625 
z
M 35.203125 72.90625 
L 47.609375 72.90625 
L 47.609375 25.390625 
L 58.015625 25.390625 
L 58.015625 17.1875 
L 47.609375 17.1875 
L 47.609375 0 
L 37.796875 0 
L 37.796875 17.1875 
L 4.890625 17.1875 
L 4.890625 26.703125 
z
" id="DejaVuSans-34"/>
      </defs>
      <g transform="translate(192.496438 322.182437)scale(0.1 -0.1)">
       <use xlink:href="#DejaVuSans-30"/>
       <use x="63.623047" xlink:href="#DejaVuSans-2e"/>
       <use x="95.410156" xlink:href="#DejaVuSans-34"/>
      </g>
     </g>
    </g>
    <g id="xtick_4">
     <g id="line2d_4">
      <g>
       <use style="stroke:#000000;stroke-width:0.8;" x="271.872" xlink:href="#me12e57b90b" y="307.584"/>
      </g>
     </g>
     <g id="text_4">
      <!-- 0.6 -->
      <defs>
       <path d="M 33.015625 40.375 
Q 26.375 40.375 22.484375 35.828125 
Q 18.609375 31.296875 18.609375 23.390625 
Q 18.609375 15.53125 22.484375 10.953125 
Q 26.375 6.390625 33.015625 6.390625 
Q 39.65625 6.390625 43.53125 10.953125 
Q 47.40625 15.53125 47.40625 23.390625 
Q 47.40625 31.296875 43.53125 35.828125 
Q 39.65625 40.375 33.015625 40.375 
z
M 52.59375 71.296875 
L 52.59375 62.3125 
Q 48.875 64.0625 45.09375 64.984375 
Q 41.3125 65.921875 37.59375 65.921875 
Q 27.828125 65.921875 22.671875 59.328125 
Q 17.53125 52.734375 16.796875 39.40625 
Q 19.671875 43.65625 24.015625 45.921875 
Q 28.375 48.1875 33.59375 48.1875 
Q 44.578125 48.1875 50.953125 41.515625 
Q 57.328125 34.859375 57.328125 23.390625 
Q 57.328125 12.15625 50.6875 5.359375 
Q 44.046875 -1.421875 33.015625 -1.421875 
Q 20.359375 -1.421875 13.671875 8.265625 
Q 6.984375 17.96875 6.984375 36.375 
Q 6.984375 53.65625 15.1875 63.9375 
Q 23.390625 74.21875 37.203125 74.21875 
Q 40.921875 74.21875 44.703125 73.484375 
Q 48.484375 72.75 52.59375 71.296875 
z
" id="DejaVuSans-36"/>
      </defs>
      <g transform="translate(263.920438 322.182437)scale(0.1 -0.1)">
       <use xlink:href="#DejaVuSans-30"/>
       <use x="63.623047" xlink:href="#DejaVuSans-2e"/>
       <use x="95.410156" xlink:href="#DejaVuSans-36"/>
      </g>
     </g>
    </g>
    <g id="xtick_5">
     <g id="line2d_5">
      <g>
       <use style="stroke:#000000;stroke-width:0.8;" x="343.296" xlink:href="#me12e57b90b" y="307.584"/>
      </g>
     </g>
     <g id="text_5">
      <!-- 0.8 -->
      <defs>
       <path d="M 31.78125 34.625 
Q 24.75 34.625 20.71875 30.859375 
Q 16.703125 27.09375 16.703125 20.515625 
Q 16.703125 13.921875 20.71875 10.15625 
Q 24.75 6.390625 31.78125 6.390625 
Q 38.8125 6.390625 42.859375 10.171875 
Q 46.921875 13.96875 46.921875 20.515625 
Q 46.921875 27.09375 42.890625 30.859375 
Q 38.875 34.625 31.78125 34.625 
z
M 21.921875 38.8125 
Q 15.578125 40.375 12.03125 44.71875 
Q 8.5 49.078125 8.5 55.328125 
Q 8.5 64.0625 14.71875 69.140625 
Q 20.953125 74.21875 31.78125 74.21875 
Q 42.671875 74.21875 48.875 69.140625 
Q 55.078125 64.0625 55.078125 55.328125 
Q 55.078125 49.078125 51.53125 44.71875 
Q 48 40.375 41.703125 38.8125 
Q 48.828125 37.15625 52.796875 32.3125 
Q 56.78125 27.484375 56.78125 20.515625 
Q 56.78125 9.90625 50.3125 4.234375 
Q 43.84375 -1.421875 31.78125 -1.421875 
Q 19.734375 -1.421875 13.25 4.234375 
Q 6.78125 9.90625 6.78125 20.515625 
Q 6.78125 27.484375 10.78125 32.3125 
Q 14.796875 37.15625 21.921875 38.8125 
z
M 18.3125 54.390625 
Q 18.3125 48.734375 21.84375 45.5625 
Q 25.390625 42.390625 31.78125 42.390625 
Q 38.140625 42.390625 41.71875 45.5625 
Q 45.3125 48.734375 45.3125 54.390625 
Q 45.3125 60.0625 41.71875 63.234375 
Q 38.140625 66.40625 31.78125 66.40625 
Q 25.390625 66.40625 21.84375 63.234375 
Q 18.3125 60.0625 18.3125 54.390625 
z
" id="DejaVuSans-38"/>
      </defs>
      <g transform="translate(335.344438 322.182437)scale(0.1 -0.1)">
       <use xlink:href="#DejaVuSans-30"/>
       <use x="63.623047" xlink:href="#DejaVuSans-2e"/>
       <use x="95.410156" xlink:href="#DejaVuSans-38"/>
      </g>
     </g>
    </g>
    <g id="xtick_6">
     <g id="line2d_6">
      <g>
       <use style="stroke:#000000;stroke-width:0.8;" x="414.72" xlink:href="#me12e57b90b" y="307.584"/>
      </g>
     </g>
     <g id="text_6">
      <!-- 1.0 -->
      <defs>
       <path d="M 12.40625 8.296875 
L 28.515625 8.296875 
L 28.515625 63.921875 
L 10.984375 60.40625 
L 10.984375 69.390625 
L 28.421875 72.90625 
L 38.28125 72.90625 
L 38.28125 8.296875 
L 54.390625 8.296875 
L 54.390625 0 
L 12.40625 0 
z
" id="DejaVuSans-31"/>
      </defs>
      <g transform="translate(406.768438 322.182437)scale(0.1 -0.1)">
       <use xlink:href="#DejaVuSans-31"/>
       <use x="63.623047" xlink:href="#DejaVuSans-2e"/>
       <use x="95.410156" xlink:href="#DejaVuSans-30"/>
      </g>
     </g>
    </g>
   </g>
   <g id="matplotlib.axis_2">
    <g id="ytick_1">
     <g id="line2d_7">
      <defs>
       <path d="M 0 0 
L -3.5 0 
" id="md89ffba26b" style="stroke:#000000;stroke-width:0.8;"/>
      </defs>
      <g>
       <use style="stroke:#000000;stroke-width:0.8;" x="57.6" xlink:href="#md89ffba26b" y="243.764071"/>
      </g>
     </g>
     <g id="text_7">
      <!-- $\mathdefault{10^{0}}$ -->
      <g transform="translate(33 247.563289)scale(0.1 -0.1)">
       <use transform="translate(0 0.765625)" xlink:href="#DejaVuSans-31"/>
       <use transform="translate(63.623047 0.765625)" xlink:href="#DejaVuSans-30"/>
       <use transform="translate(128.203125 39.046875)scale(0.7)" xlink:href="#DejaVuSans-30"/>
      </g>
     </g>
    </g>
    <g id="ytick_2">
     <g id="line2d_8">
      <g>
       <use style="stroke:#000000;stroke-width:0.8;" x="57.6" xlink:href="#md89ffba26b" y="176.33338"/>
      </g>
     </g>
     <g id="text_8">
      <!-- $\mathdefault{10^{1}}$ -->
      <g transform="translate(33 180.132599)scale(0.1 -0.1)">
       <use transform="translate(0 0.684375)" xlink:href="#DejaVuSans-31"/>
       <use transform="translate(63.623047 0.684375)" xlink:href="#DejaVuSans-30"/>
       <use transform="translate(128.203125 38.965625)scale(0.7)" xlink:href="#DejaVuSans-31"/>
      </g>
     </g>
    </g>
    <g id="ytick_3">
     <g id="line2d_9">
      <g>
       <use style="stroke:#000000;stroke-width:0.8;" x="57.6" xlink:href="#md89ffba26b" y="108.90269"/>
      </g>
     </g>
     <g id="text_9">
      <!-- $\mathdefault{10^{2}}$ -->
      <g transform="translate(33 112.701909)scale(0.1 -0.1)">
       <use transform="translate(0 0.765625)" xlink:href="#DejaVuSans-31"/>
       <use transform="translate(63.623047 0.765625)" xlink:href="#DejaVuSans-30"/>
       <use transform="translate(128.203125 39.046875)scale(0.7)" xlink:href="#DejaVuSans-32"/>
      </g>
     </g>
    </g>
    <g id="ytick_4">
     <g id="line2d_10">
      <g>
       <use style="stroke:#000000;stroke-width:0.8;" x="57.6" xlink:href="#md89ffba26b" y="41.472"/>
      </g>
     </g>
     <g id="text_10">
      <!-- $\mathdefault{10^{3}}$ -->
      <defs>
       <path d="M 40.578125 39.3125 
Q 47.65625 37.796875 51.625 33 
Q 55.609375 28.21875 55.609375 21.1875 
Q 55.609375 10.40625 48.1875 4.484375 
Q 40.765625 -1.421875 27.09375 -1.421875 
Q 22.515625 -1.421875 17.65625 -0.515625 
Q 12.796875 0.390625 7.625 2.203125 
L 7.625 11.71875 
Q 11.71875 9.328125 16.59375 8.109375 
Q 21.484375 6.890625 26.8125 6.890625 
Q 36.078125 6.890625 40.9375 10.546875 
Q 45.796875 14.203125 45.796875 21.1875 
Q 45.796875 27.640625 41.28125 31.265625 
Q 36.765625 34.90625 28.71875 34.90625 
L 20.21875 34.90625 
L 20.21875 43.015625 
L 29.109375 43.015625 
Q 36.375 43.015625 40.234375 45.921875 
Q 44.09375 48.828125 44.09375 54.296875 
Q 44.09375 59.90625 40.109375 62.90625 
Q 36.140625 65.921875 28.71875 65.921875 
Q 24.65625 65.921875 20.015625 65.03125 
Q 15.375 64.15625 9.8125 62.3125 
L 9.8125 71.09375 
Q 15.4375 72.65625 20.34375 73.4375 
Q 25.25 74.21875 29.59375 74.21875 
Q 40.828125 74.21875 47.359375 69.109375 
Q 53.90625 64.015625 53.90625 55.328125 
Q 53.90625 49.265625 50.4375 45.09375 
Q 46.96875 40.921875 40.578125 39.3125 
z
" id="DejaVuSans-33"/>
      </defs>
      <g transform="translate(33 45.271219)scale(0.1 -0.1)">
       <use transform="translate(0 0.765625)" xlink:href="#DejaVuSans-31"/>
       <use transform="translate(63.623047 0.765625)" xlink:href="#DejaVuSans-30"/>
       <use transform="translate(128.203125 39.046875)scale(0.7)" xlink:href="#DejaVuSans-33"/>
      </g>
     </g>
    </g>
    <g id="ytick_5">
     <g id="line2d_11">
      <defs>
       <path d="M 0 0 
L -2 0 
" id="m1d389ddda4" style="stroke:#000000;stroke-width:0.6;"/>
      </defs>
      <g>
       <use style="stroke:#000000;stroke-width:0.6;" x="57.6" xlink:href="#m1d389ddda4" y="290.8961"/>
      </g>
     </g>
    </g>
    <g id="ytick_6">
     <g id="line2d_12">
      <g>
       <use style="stroke:#000000;stroke-width:0.6;" x="57.6" xlink:href="#m1d389ddda4" y="279.022145"/>
      </g>
     </g>
    </g>
    <g id="ytick_7">
     <g id="line2d_13">
      <g>
       <use style="stroke:#000000;stroke-width:0.6;" x="57.6" xlink:href="#m1d389ddda4" y="270.59744"/>
      </g>
     </g>
    </g>
    <g id="ytick_8">
     <g id="line2d_14">
      <g>
       <use style="stroke:#000000;stroke-width:0.6;" x="57.6" xlink:href="#m1d389ddda4" y="264.062731"/>
      </g>
     </g>
    </g>
    <g id="ytick_9">
     <g id="line2d_15">
      <g>
       <use style="stroke:#000000;stroke-width:0.6;" x="57.6" xlink:href="#m1d389ddda4" y="258.723485"/>
      </g>
     </g>
    </g>
    <g id="ytick_10">
     <g id="line2d_16">
      <g>
       <use style="stroke:#000000;stroke-width:0.6;" x="57.6" xlink:href="#m1d389ddda4" y="254.209217"/>
      </g>
     </g>
    </g>
    <g id="ytick_11">
     <g id="line2d_17">
      <g>
       <use style="stroke:#000000;stroke-width:0.6;" x="57.6" xlink:href="#m1d389ddda4" y="250.29878"/>
      </g>
     </g>
    </g>
    <g id="ytick_12">
     <g id="line2d_18">
      <g>
       <use style="stroke:#000000;stroke-width:0.6;" x="57.6" xlink:href="#m1d389ddda4" y="246.84953"/>
      </g>
     </g>
    </g>
    <g id="ytick_13">
     <g id="line2d_19">
      <g>
       <use style="stroke:#000000;stroke-width:0.6;" x="57.6" xlink:href="#m1d389ddda4" y="223.46541"/>
      </g>
     </g>
    </g>
    <g id="ytick_14">
     <g id="line2d_20">
      <g>
       <use style="stroke:#000000;stroke-width:0.6;" x="57.6" xlink:href="#m1d389ddda4" y="211.591455"/>
      </g>
     </g>
    </g>
    <g id="ytick_15">
     <g id="line2d_21">
      <g>
       <use style="stroke:#000000;stroke-width:0.6;" x="57.6" xlink:href="#m1d389ddda4" y="203.16675"/>
      </g>
     </g>
    </g>
    <g id="ytick_16">
     <g id="line2d_22">
      <g>
       <use style="stroke:#000000;stroke-width:0.6;" x="57.6" xlink:href="#m1d389ddda4" y="196.632041"/>
      </g>
     </g>
    </g>
    <g id="ytick_17">
     <g id="line2d_23">
      <g>
       <use style="stroke:#000000;stroke-width:0.6;" x="57.6" xlink:href="#m1d389ddda4" y="191.292795"/>
      </g>
     </g>
    </g>
    <g id="ytick_18">
     <g id="line2d_24">
      <g>
       <use style="stroke:#000000;stroke-width:0.6;" x="57.6" xlink:href="#m1d389ddda4" y="186.778526"/>
      </g>
     </g>
    </g>
    <g id="ytick_19">
     <g id="line2d_25">
      <g>
       <use style="stroke:#000000;stroke-width:0.6;" x="57.6" xlink:href="#m1d389ddda4" y="182.868089"/>
      </g>
     </g>
    </g>
    <g id="ytick_20">
     <g id="line2d_26">
      <g>
       <use style="stroke:#000000;stroke-width:0.6;" x="57.6" xlink:href="#m1d389ddda4" y="179.41884"/>
      </g>
     </g>
    </g>
    <g id="ytick_21">
     <g id="line2d_27">
      <g>
       <use style="stroke:#000000;stroke-width:0.6;" x="57.6" xlink:href="#m1d389ddda4" y="156.03472"/>
      </g>
     </g>
    </g>
    <g id="ytick_22">
     <g id="line2d_28">
      <g>
       <use style="stroke:#000000;stroke-width:0.6;" x="57.6" xlink:href="#m1d389ddda4" y="144.160765"/>
      </g>
     </g>
    </g>
    <g id="ytick_23">
     <g id="line2d_29">
      <g>
       <use style="stroke:#000000;stroke-width:0.6;" x="57.6" xlink:href="#m1d389ddda4" y="135.73606"/>
      </g>
     </g>
    </g>
    <g id="ytick_24">
     <g id="line2d_30">
      <g>
       <use style="stroke:#000000;stroke-width:0.6;" x="57.6" xlink:href="#m1d389ddda4" y="129.201351"/>
      </g>
     </g>
    </g>
    <g id="ytick_25">
     <g id="line2d_31">
      <g>
       <use style="stroke:#000000;stroke-width:0.6;" x="57.6" xlink:href="#m1d389ddda4" y="123.862104"/>
      </g>
     </g>
    </g>
    <g id="ytick_26">
     <g id="line2d_32">
      <g>
       <use style="stroke:#000000;stroke-width:0.6;" x="57.6" xlink:href="#m1d389ddda4" y="119.347836"/>
      </g>
     </g>
    </g>
    <g id="ytick_27">
     <g id="line2d_33">
      <g>
       <use style="stroke:#000000;stroke-width:0.6;" x="57.6" xlink:href="#m1d389ddda4" y="115.437399"/>
      </g>
     </g>
    </g>
    <g id="ytick_28">
     <g id="line2d_34">
      <g>
       <use style="stroke:#000000;stroke-width:0.6;" x="57.6" xlink:href="#m1d389ddda4" y="111.988149"/>
      </g>
     </g>
    </g>
    <g id="ytick_29">
     <g id="line2d_35">
      <g>
       <use style="stroke:#000000;stroke-width:0.6;" x="57.6" xlink:href="#m1d389ddda4" y="88.60403"/>
      </g>
     </g>
    </g>
    <g id="ytick_30">
     <g id="line2d_36">
      <g>
       <use style="stroke:#000000;stroke-width:0.6;" x="57.6" xlink:href="#m1d389ddda4" y="76.730075"/>
      </g>
     </g>
    </g>
    <g id="ytick_31">
     <g id="line2d_37">
      <g>
       <use style="stroke:#000000;stroke-width:0.6;" x="57.6" xlink:href="#m1d389ddda4" y="68.305369"/>
      </g>
     </g>
    </g>
    <g id="ytick_32">
     <g id="line2d_38">
      <g>
       <use style="stroke:#000000;stroke-width:0.6;" x="57.6" xlink:href="#m1d389ddda4" y="61.77066"/>
      </g>
     </g>
    </g>
    <g id="ytick_33">
     <g id="line2d_39">
      <g>
       <use style="stroke:#000000;stroke-width:0.6;" x="57.6" xlink:href="#m1d389ddda4" y="56.431414"/>
      </g>
     </g>
    </g>
    <g id="ytick_34">
     <g id="line2d_40">
      <g>
       <use style="stroke:#000000;stroke-width:0.6;" x="57.6" xlink:href="#m1d389ddda4" y="51.917146"/>
      </g>
     </g>
    </g>
    <g id="ytick_35">
     <g id="line2d_41">
      <g>
       <use style="stroke:#000000;stroke-width:0.6;" x="57.6" xlink:href="#m1d389ddda4" y="48.006709"/>
      </g>
     </g>
    </g>
    <g id="ytick_36">
     <g id="line2d_42">
      <g>
       <use style="stroke:#000000;stroke-width:0.6;" x="57.6" xlink:href="#m1d389ddda4" y="44.557459"/>
      </g>
     </g>
    </g>
   </g>
   <g id="patch_203">
    <path d="M 57.6 307.584 
L 57.6 41.472 
" style="fill:none;stroke:#000000;stroke-linecap:square;stroke-linejoin:miter;stroke-width:0.8;"/>
   </g>
   <g id="patch_204">
    <path d="M 414.72 307.584 
L 414.72 41.472 
" style="fill:none;stroke:#000000;stroke-linecap:square;stroke-linejoin:miter;stroke-width:0.8;"/>
   </g>
   <g id="patch_205">
    <path d="M 57.6 307.584 
L 414.72 307.584 
" style="fill:none;stroke:#000000;stroke-linecap:square;stroke-linejoin:miter;stroke-width:0.8;"/>
   </g>
   <g id="patch_206">
    <path d="M 57.6 41.472 
L 414.72 41.472 
" style="fill:none;stroke:#000000;stroke-linecap:square;stroke-linejoin:miter;stroke-width:0.8;"/>
   </g>
   <g id="legend_1">
    <g id="patch_207">
     <path d="M 202.270156 78.82825 
L 270.049844 78.82825 
Q 272.049844 78.82825 272.049844 76.82825 
L 272.049844 48.472 
Q 272.049844 46.472 270.049844 46.472 
L 202.270156 46.472 
Q 200.270156 46.472 200.270156 48.472 
L 200.270156 76.82825 
Q 200.270156 78.82825 202.270156 78.82825 
z
" style="fill:#ffffff;opacity:0.8;stroke:#cccccc;stroke-linejoin:miter;"/>
    </g>
    <g id="patch_208">
     <path d="M 204.270156 58.070437 
L 224.270156 58.070437 
L 224.270156 51.070437 
L 204.270156 51.070437 
z
" style="fill:#1f77b4;opacity:0.5;"/>
    </g>
    <g id="text_11">
     <!-- Hamis -->
     <defs>
      <path d="M 9.8125 72.90625 
L 19.671875 72.90625 
L 19.671875 43.015625 
L 55.515625 43.015625 
L 55.515625 72.90625 
L 65.375 72.90625 
L 65.375 0 
L 55.515625 0 
L 55.515625 34.71875 
L 19.671875 34.71875 
L 19.671875 0 
L 9.8125 0 
z
" id="DejaVuSans-48"/>
      <path d="M 34.28125 27.484375 
Q 23.390625 27.484375 19.1875 25 
Q 14.984375 22.515625 14.984375 16.5 
Q 14.984375 11.71875 18.140625 8.90625 
Q 21.296875 6.109375 26.703125 6.109375 
Q 34.1875 6.109375 38.703125 11.40625 
Q 43.21875 16.703125 43.21875 25.484375 
L 43.21875 27.484375 
z
M 52.203125 31.203125 
L 52.203125 0 
L 43.21875 0 
L 43.21875 8.296875 
Q 40.140625 3.328125 35.546875 0.953125 
Q 30.953125 -1.421875 24.3125 -1.421875 
Q 15.921875 -1.421875 10.953125 3.296875 
Q 6 8.015625 6 15.921875 
Q 6 25.140625 12.171875 29.828125 
Q 18.359375 34.515625 30.609375 34.515625 
L 43.21875 34.515625 
L 43.21875 35.40625 
Q 43.21875 41.609375 39.140625 45 
Q 35.0625 48.390625 27.6875 48.390625 
Q 23 48.390625 18.546875 47.265625 
Q 14.109375 46.140625 10.015625 43.890625 
L 10.015625 52.203125 
Q 14.9375 54.109375 19.578125 55.046875 
Q 24.21875 56 28.609375 56 
Q 40.484375 56 46.34375 49.84375 
Q 52.203125 43.703125 52.203125 31.203125 
z
" id="DejaVuSans-61"/>
      <path d="M 52 44.1875 
Q 55.375 50.25 60.0625 53.125 
Q 64.75 56 71.09375 56 
Q 79.640625 56 84.28125 50.015625 
Q 88.921875 44.046875 88.921875 33.015625 
L 88.921875 0 
L 79.890625 0 
L 79.890625 32.71875 
Q 79.890625 40.578125 77.09375 44.375 
Q 74.3125 48.1875 68.609375 48.1875 
Q 61.625 48.1875 57.5625 43.546875 
Q 53.515625 38.921875 53.515625 30.90625 
L 53.515625 0 
L 44.484375 0 
L 44.484375 32.71875 
Q 44.484375 40.625 41.703125 44.40625 
Q 38.921875 48.1875 33.109375 48.1875 
Q 26.21875 48.1875 22.15625 43.53125 
Q 18.109375 38.875 18.109375 30.90625 
L 18.109375 0 
L 9.078125 0 
L 9.078125 54.6875 
L 18.109375 54.6875 
L 18.109375 46.1875 
Q 21.1875 51.21875 25.484375 53.609375 
Q 29.78125 56 35.6875 56 
Q 41.65625 56 45.828125 52.96875 
Q 50 49.953125 52 44.1875 
z
" id="DejaVuSans-6d"/>
      <path d="M 9.421875 54.6875 
L 18.40625 54.6875 
L 18.40625 0 
L 9.421875 0 
z
M 9.421875 75.984375 
L 18.40625 75.984375 
L 18.40625 64.59375 
L 9.421875 64.59375 
z
" id="DejaVuSans-69"/>
      <path d="M 44.28125 53.078125 
L 44.28125 44.578125 
Q 40.484375 46.53125 36.375 47.5 
Q 32.28125 48.484375 27.875 48.484375 
Q 21.1875 48.484375 17.84375 46.4375 
Q 14.5 44.390625 14.5 40.28125 
Q 14.5 37.15625 16.890625 35.375 
Q 19.28125 33.59375 26.515625 31.984375 
L 29.59375 31.296875 
Q 39.15625 29.25 43.1875 25.515625 
Q 47.21875 21.78125 47.21875 15.09375 
Q 47.21875 7.46875 41.1875 3.015625 
Q 35.15625 -1.421875 24.609375 -1.421875 
Q 20.21875 -1.421875 15.453125 -0.5625 
Q 10.6875 0.296875 5.421875 2 
L 5.421875 11.28125 
Q 10.40625 8.6875 15.234375 7.390625 
Q 20.0625 6.109375 24.8125 6.109375 
Q 31.15625 6.109375 34.5625 8.28125 
Q 37.984375 10.453125 37.984375 14.40625 
Q 37.984375 18.0625 35.515625 20.015625 
Q 33.0625 21.96875 24.703125 23.78125 
L 21.578125 24.515625 
Q 13.234375 26.265625 9.515625 29.90625 
Q 5.8125 33.546875 5.8125 39.890625 
Q 5.8125 47.609375 11.28125 51.796875 
Q 16.75 56 26.8125 56 
Q 31.78125 56 36.171875 55.265625 
Q 40.578125 54.546875 44.28125 53.078125 
z
" id="DejaVuSans-73"/>
     </defs>
     <g transform="translate(232.270156 58.070437)scale(0.1 -0.1)">
      <use xlink:href="#DejaVuSans-48"/>
      <use x="75.195312" xlink:href="#DejaVuSans-61"/>
      <use x="136.474609" xlink:href="#DejaVuSans-6d"/>
      <use x="233.886719" xlink:href="#DejaVuSans-69"/>
      <use x="261.669922" xlink:href="#DejaVuSans-73"/>
     </g>
    </g>
    <g id="patch_209">
     <path d="M 204.270156 72.748562 
L 224.270156 72.748562 
L 224.270156 65.748562 
L 204.270156 65.748562 
z
" style="fill:#ff7f0e;opacity:0.5;"/>
    </g>
    <g id="text_12">
     <!-- Eredeti -->
     <defs>
      <path d="M 9.8125 72.90625 
L 55.90625 72.90625 
L 55.90625 64.59375 
L 19.671875 64.59375 
L 19.671875 43.015625 
L 54.390625 43.015625 
L 54.390625 34.71875 
L 19.671875 34.71875 
L 19.671875 8.296875 
L 56.78125 8.296875 
L 56.78125 0 
L 9.8125 0 
z
" id="DejaVuSans-45"/>
      <path d="M 41.109375 46.296875 
Q 39.59375 47.171875 37.8125 47.578125 
Q 36.03125 48 33.890625 48 
Q 26.265625 48 22.1875 43.046875 
Q 18.109375 38.09375 18.109375 28.8125 
L 18.109375 0 
L 9.078125 0 
L 9.078125 54.6875 
L 18.109375 54.6875 
L 18.109375 46.1875 
Q 20.953125 51.171875 25.484375 53.578125 
Q 30.03125 56 36.53125 56 
Q 37.453125 56 38.578125 55.875 
Q 39.703125 55.765625 41.0625 55.515625 
z
" id="DejaVuSans-72"/>
      <path d="M 56.203125 29.59375 
L 56.203125 25.203125 
L 14.890625 25.203125 
Q 15.484375 15.921875 20.484375 11.0625 
Q 25.484375 6.203125 34.421875 6.203125 
Q 39.59375 6.203125 44.453125 7.46875 
Q 49.3125 8.734375 54.109375 11.28125 
L 54.109375 2.78125 
Q 49.265625 0.734375 44.1875 -0.34375 
Q 39.109375 -1.421875 33.890625 -1.421875 
Q 20.796875 -1.421875 13.15625 6.1875 
Q 5.515625 13.8125 5.515625 26.8125 
Q 5.515625 40.234375 12.765625 48.109375 
Q 20.015625 56 32.328125 56 
Q 43.359375 56 49.78125 48.890625 
Q 56.203125 41.796875 56.203125 29.59375 
z
M 47.21875 32.234375 
Q 47.125 39.59375 43.09375 43.984375 
Q 39.0625 48.390625 32.421875 48.390625 
Q 24.90625 48.390625 20.390625 44.140625 
Q 15.875 39.890625 15.1875 32.171875 
z
" id="DejaVuSans-65"/>
      <path d="M 45.40625 46.390625 
L 45.40625 75.984375 
L 54.390625 75.984375 
L 54.390625 0 
L 45.40625 0 
L 45.40625 8.203125 
Q 42.578125 3.328125 38.25 0.953125 
Q 33.9375 -1.421875 27.875 -1.421875 
Q 17.96875 -1.421875 11.734375 6.484375 
Q 5.515625 14.40625 5.515625 27.296875 
Q 5.515625 40.1875 11.734375 48.09375 
Q 17.96875 56 27.875 56 
Q 33.9375 56 38.25 53.625 
Q 42.578125 51.265625 45.40625 46.390625 
z
M 14.796875 27.296875 
Q 14.796875 17.390625 18.875 11.75 
Q 22.953125 6.109375 30.078125 6.109375 
Q 37.203125 6.109375 41.296875 11.75 
Q 45.40625 17.390625 45.40625 27.296875 
Q 45.40625 37.203125 41.296875 42.84375 
Q 37.203125 48.484375 30.078125 48.484375 
Q 22.953125 48.484375 18.875 42.84375 
Q 14.796875 37.203125 14.796875 27.296875 
z
" id="DejaVuSans-64"/>
      <path d="M 18.3125 70.21875 
L 18.3125 54.6875 
L 36.8125 54.6875 
L 36.8125 47.703125 
L 18.3125 47.703125 
L 18.3125 18.015625 
Q 18.3125 11.328125 20.140625 9.421875 
Q 21.96875 7.515625 27.59375 7.515625 
L 36.8125 7.515625 
L 36.8125 0 
L 27.59375 0 
Q 17.1875 0 13.234375 3.875 
Q 9.28125 7.765625 9.28125 18.015625 
L 9.28125 47.703125 
L 2.6875 47.703125 
L 2.6875 54.6875 
L 9.28125 54.6875 
L 9.28125 70.21875 
z
" id="DejaVuSans-74"/>
     </defs>
     <g transform="translate(232.270156 72.748562)scale(0.1 -0.1)">
      <use xlink:href="#DejaVuSans-45"/>
      <use x="63.183594" xlink:href="#DejaVuSans-72"/>
      <use x="104.265625" xlink:href="#DejaVuSans-65"/>
      <use x="165.789062" xlink:href="#DejaVuSans-64"/>
      <use x="229.265625" xlink:href="#DejaVuSans-65"/>
      <use x="290.789062" xlink:href="#DejaVuSans-74"/>
      <use x="329.998047" xlink:href="#DejaVuSans-69"/>
     </g>
    </g>
   </g>
  </g>
 </g>
 <defs>
  <clipPath id="pfd8e831c8e">
   <rect height="266.112" width="357.12" x="57.6" y="41.472"/>
  </clipPath>
 </defs>
</svg>
